<?xml version="1.0"?>
<svg xmlns="http://www.w3.org/2000/svg" viewBox="0 0 50 50">
    <path style="line-height:normal;text-indent:0;text-align:start;text-decoration-line:none;text-decoration-style:solid;text-decoration-color:#000;text-transform:none;block-progression:tb;isolation:auto;mix-blend-mode:normal" d="M 19 6 C 9.626 6 2 12.505 2 20.5 C 2 24.769 4.0594063 28.609672 7.8164062 31.388672 L 5.1777344 39.304688 L 13.427734 34.197266 C 15.716044 34.91862 18.50605 35.170427 21.201172 34.876953 C 23.388953 39.109808 28.332504 42 34 42 C 35.72431 42 37.317256 41.674985 38.796875 41.232422 L 45.644531 45.066406 L 43.734375 38.513672 C 46.314056 36.374265 48 33.3956 48 30 C 48 23.788762 42.596431 18.836413 35.751953 18.103516 C 34.404567 11.153452 27.368304 6 19 6 z M 13 14 C 14.1 14 15 14.9 15 16 C 15 17.1 14.1 18 13 18 C 11.9 18 11 17.1 11 16 C 11 14.9 11.9 14 13 14 z M 25 14 C 26.1 14 27 14.9 27 16 C 27 17.1 26.1 18 25 18 C 23.9 18 23 17.1 23 16 C 23 14.9 23.9 14 25 14 z M 34 20 C 40.746296 20 46 24.53388 46 30 C 46 32.956566 44.493705 35.552189 42.003906 37.396484 L 41.445312 37.810547 L 42.355469 40.931641 L 39.103516 39.111328 L 38.683594 39.251953 C 37.284787 39.718222 35.688889 40 34 40 C 27.253704 40 22 35.46612 22 30 C 22 24.53388 27.253704 20 34 20 z M 29.5 26 C 28.7 26 28 26.7 28 27.5 C 28 28.3 28.7 29 29.5 29 C 30.3 29 31 28.3 31 27.5 C 31 26.7 30.3 26 29.5 26 z M 38.5 26 C 37.7 26 37 26.7 37 27.5 C 37 28.3 37.7 29 38.5 29 C 39.3 29 40 28.3 40 27.5 C 40 26.7 39.3 26 38.5 26 z" font-weight="400" font-family="sans-serif" fill="#575757ff" white-space="normal" overflow="visible"/>
</svg>
